<?xml version="1.0" encoding="utf-8"?>
<!-- Svg Vector Icons : http://www.onlinewebfonts.com/icon -->
<!DOCTYPE svg PUBLIC "-//W3C//DTD SVG 1.1//EN" "http://www.w3.org/Graphics/SVG/1.1/DTD/svg11.dtd">
<svg version="1.1" xmlns="http://www.w3.org/2000/svg" xmlns:xlink="http://www.w3.org/1999/xlink" x="0px" y="0px" viewBox="0 0 1000 1000" enable-background="new 0 0 1000 1000" xml:space="preserve">
<metadata> Svg Vector Icons : http://www.onlinewebfonts.com/icon </metadata>
<g><g transform="translate(0.000000,511.000000) scale(0.100000,-0.100000)"><path d="M1128.7,3897.9C-5.5,2464.9-225,355.1,586-1260.8c292.7-585.4,536.6-926.9,981.7-1365.9c1323.2-1298.8,3274.4-1737.8,5042.8-1128.1c920.7,317.1,1878.1,1036.6,2408.6,1798.8c292.7,426.8,646.3,1225.7,774.4,1750c152.4,628.1,140.3,1634.2-30.5,2286.6c-158.5,609.8-524.4,1353.7-890.2,1817.1l-274.4,347.6H5000.7H1403.1L1128.7,3897.9z M8671.6,3379.6c2000-2957.4-128.1-6939.2-3713.5-6939.2c-1237.8,0-2561,622-3341.5,1567.1C336-437.6,207.9,1647.8,1287.2,3306.4l298.8,451.2h3408.6h3414.7L8671.6,3379.6z"/><path d="M1823.8,3202.7c-182.9-182.9-579.3-1061-658.5-1457.3c-79.3-402.5-103.7-932.9-42.7-1024.4c61-97.6,250-91.5,323.2,6.1c36.6,36.6,79.3,250,103.6,457.3c61,536.6,237.8,1073.2,493.9,1500c243.9,408.6,250,420.7,115.9,548.8C2037.2,3361.3,1976.3,3355.2,1823.8,3202.7z"/><path d="M6445.9,2184.4c-134.2-146.4-128-274.4,6.1-396.3c225.6-207.3,500-91.5,500,201.2C6952,2288.1,6641,2403.9,6445.9,2184.4z"/><path d="M7543.5,1208.8c-134.2-146.4-128-274.4,6.1-396.4c225.6-207.3,500-91.5,500,201.2C8049.6,1312.5,7738.6,1428.3,7543.5,1208.8z"/><path d="M4622.7,623.4c-158.5-42.7-432.9-164.6-597.6-268.3c-298.8-182.9-323.2-189-487.8-103.7c-207.3,103.7-524.4,122-579.3,24.4c-73.2-109.7,24.4-359.8,140.2-359.8c170.8,0,378.1-176.9,378.1-329.3c0-152.4-170.7-341.4-311-341.4c-250,0-317.1-329.3-91.5-439c122-54.8,201.2-42.7,402.5,61l256.1,122l213.4-140.2c317.1-219.5,841.5-396.3,1164.6-396.3c378.1,6.1,719.6,164.6,994,469.5C6884.9-211.9,5848.3,971,4622.7,623.4z M5488.5,129.5c225.6-115.9,426.8-378.1,426.8-554.9c0-85.4-91.5-250-201.2-365.9c-170.7-189.1-250-225.6-518.3-256.1c-365.9-30.5-762.2,91.5-1048.8,335.4c-243.9,201.2-237.8,396.4,18.3,591.5C4580,196.6,5147.1,306.3,5488.5,129.5z"/><path d="M6927.6,62.4c-122-115.8-128.1-353.7-12.2-445.2c152.4-128,420.7-54.8,487.8,128.1C7506.9,50.3,7147.1,288.1,6927.6,62.4z"/></g></g>
</svg>