<?xml version="1.0" encoding="iso-8859-1"?>
<!-- Generator: Adobe Illustrator 19.0.0, SVG Export Plug-In . SVG Version: 6.00 Build 0)  -->
<svg version="1.1" id="Layer_1" xmlns="http://www.w3.org/2000/svg" xmlns:xlink="http://www.w3.org/1999/xlink" x="0px" y="0px"
	 viewBox="0 0 512 512" style="enable-background:new 0 0 512 512;" xml:space="preserve">
<g>
	<g>
		<path d="M454.156,194.62c-5.104-11.263-10.381-22.909-15.845-36.517c-1.682-4.19-3.407-8.395-5.186-12.597
			c10.791-4.112,20.575-10.715,28.553-19.428c12.734-13.908,19.748-31.978,19.748-50.881C481.425,33.733,447.835,0,406.544,0
			c-26.404,0-50.044,13.588-63.462,35.201c-24.482-12.179-53.295-18.157-87.082-18.157s-62.6,5.978-87.082,18.156
			C155.497,13.588,131.858,0,105.455,0C64.164,0,30.574,33.733,30.574,75.196c0,18.904,7.013,36.973,19.748,50.881
			c7.979,8.714,17.762,15.318,28.553,19.428c-1.779,4.203-3.505,8.407-5.186,12.597c-5.463,13.608-10.741,25.254-15.844,36.517
			c-15.391,33.963-27.548,60.791-27.548,104.703c0,30.235,8.28,56.218,24.608,77.229c14.002,18.017,34.016,32.386,59.483,42.706
			c22.045,8.933,46.236,14.141,69.673,17.153v57.1L239.303,512V375.531c-17.627-9.157-34.316-30.063-34.316-46.836
			c0-11.847,5.62-20.486,16.25-24.983c7.593-3.212,17.99-4.582,34.763-4.582s27.17,1.371,34.763,4.582
			c10.631,4.498,16.25,13.136,16.25,24.983c0,16.774-16.69,37.679-34.316,46.836V512l55.243-18.489v-57.1
			c23.437-3.012,47.629-8.22,69.673-17.153c25.468-10.32,45.481-24.69,59.483-42.706c16.329-21.01,24.608-46.994,24.608-77.229
			C481.703,255.411,469.547,228.583,454.156,194.62z M203.875,216.286c-11.332,0-20.555-9.375-20.555-20.94
			c0-11.567,9.223-20.934,20.555-20.934c11.346,0,20.567,9.367,20.567,20.934C224.441,206.91,215.221,216.286,203.875,216.286z
			 M307.97,216.442c-11.442,0-20.724-9.445-20.724-21.097c0-11.651,9.282-21.097,20.724-21.097c11.428,0,20.709,9.445,20.709,21.097
			S319.397,216.442,307.97,216.442z"/>
	</g>
</g>
<g>
</g>
<g>
</g>
<g>
</g>
<g>
</g>
<g>
</g>
<g>
</g>
<g>
</g>
<g>
</g>
<g>
</g>
<g>
</g>
<g>
</g>
<g>
</g>
<g>
</g>
<g>
</g>
<g>
</g>
</svg>
